<svg xmlns="http://www.w3.org/2000/svg" viewBox="0 0 32 32" width="32" height="32">
  <circle cx="16" cy="16" r="16" fill="#F7931A"/>
  <path d="M22.56 14.34c.31-2.08-1.27-3.2-3.44-3.95l.7-2.82-1.72-.43-.68 2.74c-.45-.11-.91-.21-1.37-.32l.69-2.77-1.72-.43-.7 2.82c-.37-.08-.74-.17-1.1-.25v-.01l-2.37-.59-.46 1.84s1.27.29 1.25.31c.7.17.82.64.8 1l-.8 3.2c.05.01.11.03.18.06l-.18-.04-1.12 4.49c-.08.2-.29.51-.77.39.02.02-1.25-.31-1.25-.31l-.85 1.97 2.24.56c.41.1.82.21 1.22.31l-.71 2.84 1.72.43.7-2.82c.47.13.93.24 1.38.36l-.7 2.8 1.72.43.71-2.84c2.94.56 5.15.33 6.08-2.33.75-2.13-.04-3.36-1.58-4.16 1.12-.26 1.97-1.01 2.19-2.55zm-3.92 5.5c-.53 2.13-4.13.98-5.29.69l.94-3.78c1.16.29 4.87.87 4.35 3.09zm.54-5.53c-.49 1.94-3.48.95-4.46.71l.86-3.43c.97.24 4.11.7 3.6 2.72z" fill="#fff"/>
</svg>
