<svg xmlns="http://www.w3.org/2000/svg" viewBox="0 0 32 32" fill="#FFC400">
  <circle cx="16" cy="16" r="6" opacity="0.9"/>
  <path d="M16 4 L17.2 12 L16 10 L14.8 12 Z" opacity="0.7"/>
  <path d="M16 28 L17.2 20 L16 22 L14.8 20 Z" opacity="0.7"/>
  <path d="M4 16 L12 17.2 L10 16 L12 14.8 Z" opacity="0.7"/>
  <path d="M28 16 L20 17.2 L22 16 L20 14.8 Z" opacity="0.7"/>
  <path d="M7.5 7.5 L13 12.5 L11.5 11 L12.5 13 Z" opacity="0.5"/>
  <path d="M24.5 24.5 L19 19.5 L20.5 21 L19.5 19 Z" opacity="0.5"/>
  <path d="M24.5 7.5 L19.5 13 L21 11.5 L19 12.5 Z" opacity="0.5"/>
  <path d="M7.5 24.5 L12.5 19 L11 20.5 L13 19.5 Z" opacity="0.5"/>
</svg>
